PathFileType	4	(X/Y/Z)	C:/Users/beibeiliu/ov580/test_trc\sequence.10_training_dense_left.trc
DataRate	CameraRate	NumFrames	NumMarkers	Units	OrigDataRate	OrigDataStartFrame	OrigNumFrames
120	120	7	19	mm	120	38	302
Frame#	Time	ThumbCMC			ThumbMCP			ThumbIP			ThumbTip			IndexMCP			IndexPIP			IndexTip			MiddleMCP			MiddlePIP			MiddleTip			RingMCP			RingPIP			RingTip			PinkyMCP			PinkyPIP			PinkyTip			BackHand1			BackHand2			BackHand3	
		X0	Y0	Z0	X1	Y1	Z1	X2	Y2	Z2	X3	Y3	Z3	X4	Y4	Z4	X5	Y5	Z5	X6	Y6	Z6	X7	Y7	Z7	X8	Y8	Z8	X9	Y9	Z9	X10	Y10	Z10	X11	Y11	Z11	X12	Y12	Z12	X13	Y13	Z13	X14	Y14	Z14	X15	Y15	Z15	X16	Y16	Z16	X17	Y17	Z17	X18	Y18	Z18	
37	0.308333	-205.2	-24.866	-5.25698	-198.887	-4.84184	-25.4576	-184.855	7.45449	-33.4504	-167.884	22.0008	-42.9494	-145.914	4.37276	-38.8551	-131.671	19.192	-42.2069	-117.341	36.5584	-44.1627	-132.521	-5.00909	-30.8738	-117.516	13.3494	-35.6404	-98.8756	28.9396	-38.4149	-123.537	-14.7749	-18.7713	-111.185	6.07764	-25.9361	-93.5429	20.9383	-28.4683	-122.227	-29.2355	-4.99656	-109.521	-13.9901	-11.0949	-100.789	-1.90282	-20.644	-160.312	-48.0834	-7.68658	-172.799	-64.2705	4.52865	-184.183	-40.3931	-17.3311	
38	0.316667	-201.224	-26.2902	-3.14938	-201.256	-3.10332	-23.8715	-184.607	10.2633	-35.7374	-168.882	21.24	-39.2599	-150.253	4.76493	-39.3857	-135.035	24.8956	-45.3166	-117.435	39.386	-45.1227	-134.949	1.31317	-34.6743	-117.445	18.9276	-37.7087	-97.8011	37.3671	-41.9748	-123.58	-7.19197	-22.0187	-110.51	8.89898	-26.5929	-97.1698	24.3371	-30.6452	-119.315	-20.2432	-7.12018	-106.962	-8.52167	-11.6529	-93.1933	6.31976	-21.5944	-152.879	-45.4207	-5.24904	-171.08	-58.9003	3.08143	-181.619	-40.5641	-16.6722	
39	0.325	-197.36	-26.2888	-1.85522	-197.496	-6.17524	-19.782	-180.999	10.6747	-35.7321	-163.827	24.8067	-43.574	-145.624	9.81951	-40.9288	-135.49	23.8742	-45.6299	-118.598	44.7268	-48.6298	-127.709	5.1137	-34.0627	-115.469	24.0299	-39.2287	-100.501	38.5238	-43.2998	-122.622	-3.24956	-22.4833	-108.263	14.3525	-27.1941	-93.5549	30.1913	-33.0362	-114.431	-14.2875	-7.87528	-104.704	-0.976024	-13.5683	-93.4976	14.2987	-21.726	-150.476	-42.2829	-7.81787	-163.215	-57.1609	6.35475	-179.019	-39.6389	-13.7588	
40	0.333333	-198.334	-22.6142	-4.62728	-194.524	-3.9427	-22.8787	-181.428	11.5237	-37.3128	-166.702	26.8818	-45.467	-143.814	11.0592	-42.3046	-134.096	28.5884	-47.9599	-118.899	44.9109	-50.3746	-127.721	8.65352	-35.3036	-116.586	26.0561	-41.5472	-103.965	46.4415	-50.2685	-117.886	0.495508	-22.1774	-107.991	17.5955	-29.7419	-96.1625	37.2866	-37.3952	-115.314	-10.9792	-8.41158	-102.854	3.22755	-13.8026	-94.9676	17.4065	-25.8955	-141.056	-37.4864	-6.91218	-158.848	-54.0979	6.9392	-171.773	-39.2071	-13.1794	
41	0.341667	-195.336	-22.0762	-4.51001	-193.932	-2.85992	-19.9664	-179.375	15.4977	-39.2128	-163.479	27.4928	-45.3725	-146.712	12.4409	-44.2434	-134.965	28.2881	-51.0607	-119.604	46.1218	-54.4783	-125.242	12.0915	-38.2547	-115.383	29.2926	-46.36	-98.5647	46.691	-53.0391	-115.131	3.40082	-23.7306	-108.233	22.1945	-33.2831	-97.7329	39.9438	-41.4239	-108.368	-5.74606	-9.14413	-100.864	9.44688	-17.5236	-89.3905	24.1532	-28.2938	-140.142	-33.2972	-7.0982	-156.369	-48.8039	6.10881	-170.783	-35.8608	-12.6674	
42	0.35	-188.487	-17.2914	-4.52069	-193.554	0.801171	-24.4028	-174.458	15.8175	-37.36	-163.265	29.2592	-44.4722	-147.04	15.0166	-48.179	-131.834	33.8358	-55.9289	-117.674	52.5019	-63.2191	-123.619	16.7617	-41.7675	-111.829	31.887	-49.9775	-98.9861	51.6065	-63.0905	-113.56	8.16118	-26.0347	-100.813	26.1089	-35.6822	-94.2131	42.5108	-46.2737	-106.245	-0.353157	-11.2189	-99.2259	14.2155	-21.6632	-90.8939	26.9027	-33.0672	-138.388	-29.8755	-6.5487	-151.096	-44.9209	8.05606	-165.93	-32.0162	-11.8907	
43	0.358333	-187.372	-13.7898	-3.39578	-187.666	3.45448	-23.0128	-177.572	18.5178	-37.0539	-160.941	35.4165	-47.9622	-140.44	18.9403	-47.3807	-133.538	33.9862	-59.0233	-118.667	49.5243	-66.9063	-122.677	17.6747	-41.2685	-112.466	36.1897	-56.5512	-97.907	50.1373	-65.9718	-111.323	15.2748	-31.16	-102.172	27.9902	-39.2777	-89.479	44.609	-49.9275	-106.069	6.38851	-16.5624	-97.0944	18.0283	-24.1779	-89.6572	28.314	-35.4613	-134.88	-22.3717	-9.93496	-144.078	-40.4654	8.91621	-164.36	-27.0532	-12.0058	
